<svg width="448" height="44" viewBox="0 0 448 44" fill="none" xmlns="http://www.w3.org/2000/svg">
<path d="M19.084 24.978C19.084 26.77 18.65 28.296 17.782 29.556C16.914 30.788 15.668 31.74 14.044 32.412C12.448 33.084 10.558 33.42 8.374 33.42C7.254 33.42 6.176 33.364 5.14 33.252C4.132 33.14 3.208 32.986 2.368 32.79C1.528 32.566 0.786 32.3 0.142 31.992V28.38C1.15 28.828 2.396 29.234 3.88 29.598C5.392 29.962 6.946 30.144 8.542 30.144C10.026 30.144 11.272 29.948 12.28 29.556C13.288 29.164 14.044 28.604 14.548 27.876C15.052 27.148 15.304 26.294 15.304 25.314C15.304 24.334 15.094 23.508 14.674 22.836C14.254 22.164 13.526 21.548 12.49 20.988C11.482 20.4 10.068 19.784 8.248 19.14C6.96 18.664 5.826 18.16 4.846 17.628C3.894 17.068 3.096 16.438 2.452 15.738C1.808 15.038 1.318 14.24 0.982 13.344C0.674 12.448 0.52 11.412 0.52 10.236C0.52 8.64 0.926 7.282 1.738 6.162C2.55 5.014 3.67 4.132 5.098 3.516C6.554 2.9 8.22 2.592 10.096 2.592C11.748 2.592 13.26 2.746 14.632 3.054C16.004 3.362 17.25 3.768 18.37 4.272L17.194 7.506C16.158 7.058 15.024 6.68 13.792 6.372C12.588 6.064 11.328 5.91 10.012 5.91C8.752 5.91 7.702 6.092 6.862 6.456C6.022 6.82 5.392 7.338 4.972 8.01C4.552 8.654 4.342 9.41 4.342 10.278C4.342 11.286 4.552 12.126 4.972 12.798C5.392 13.47 6.078 14.072 7.03 14.604C7.982 15.136 9.27 15.71 10.894 16.326C12.658 16.97 14.142 17.67 15.346 18.426C16.578 19.154 17.502 20.036 18.118 21.072C18.762 22.108 19.084 23.41 19.084 24.978ZM44.1928 21.702C44.1928 23.578 43.9408 25.244 43.4368 26.7C42.9608 28.128 42.2608 29.346 41.3368 30.354C40.4408 31.362 39.3348 32.132 38.0188 32.664C36.7308 33.168 35.2888 33.42 33.6928 33.42C32.2088 33.42 30.8368 33.168 29.5768 32.664C28.3168 32.132 27.2248 31.362 26.3008 30.354C25.3768 29.346 24.6488 28.128 24.1168 26.7C23.6128 25.244 23.3608 23.578 23.3608 21.702C23.3608 19.21 23.7808 17.11 24.6208 15.402C25.4608 13.666 26.6648 12.35 28.2328 11.454C29.8008 10.53 31.6628 10.068 33.8188 10.068C35.8628 10.068 37.6548 10.53 39.1948 11.454C40.7628 12.35 41.9808 13.666 42.8488 15.402C43.7448 17.11 44.1928 19.21 44.1928 21.702ZM27.1828 21.702C27.1828 23.466 27.4068 25.006 27.8548 26.322C28.3308 27.61 29.0588 28.604 30.0388 29.304C31.0188 30.004 32.2648 30.354 33.7768 30.354C35.2888 30.354 36.5348 30.004 37.5148 29.304C38.4948 28.604 39.2088 27.61 39.6568 26.322C40.1328 25.006 40.3708 23.466 40.3708 21.702C40.3708 19.91 40.1328 18.384 39.6568 17.124C39.1808 15.864 38.4528 14.898 37.4728 14.226C36.5208 13.526 35.2748 13.176 33.7348 13.176C31.4388 13.176 29.7728 13.932 28.7368 15.444C27.7008 16.956 27.1828 19.042 27.1828 21.702ZM60.4245 13.344H54.7545V33H51.0585V13.344H47.1105V11.622L51.0585 10.362V9.06C51.0585 7.128 51.3385 5.56 51.8985 4.356C52.4865 3.152 53.3265 2.27 54.4185 1.71C55.5105 1.15 56.8265 0.869998 58.3665 0.869998C59.2625 0.869998 60.0745 0.953998 60.8025 1.122C61.5585 1.262 62.2025 1.43 62.7345 1.626L61.7685 4.524C61.3205 4.384 60.8025 4.244 60.2145 4.104C59.6265 3.964 59.0245 3.894 58.4085 3.894C57.1765 3.894 56.2525 4.314 55.6365 5.154C55.0485 5.966 54.7545 7.254 54.7545 9.018V10.488H60.4245V13.344ZM72.006 30.396C72.566 30.396 73.14 30.354 73.728 30.27C74.316 30.158 74.792 30.046 75.156 29.934V32.748C74.764 32.944 74.204 33.098 73.476 33.21C72.748 33.35 72.048 33.42 71.376 33.42C70.2 33.42 69.108 33.224 68.1 32.832C67.12 32.412 66.322 31.698 65.706 30.69C65.09 29.682 64.782 28.268 64.782 26.448V13.344H61.59V11.58L64.824 10.11L66.294 5.322H68.478V10.488H74.988V13.344H68.478V26.364C68.478 27.736 68.8 28.758 69.444 29.43C70.116 30.074 70.97 30.396 72.006 30.396ZM94.1958 20.274C94.0278 19.686 93.8598 19.112 93.6918 18.552C93.5238 17.964 93.3698 17.418 93.2298 16.914C93.1178 16.382 93.0058 15.892 92.8938 15.444C92.7818 14.996 92.6978 14.618 92.6418 14.31H92.4738C92.4178 14.618 92.3338 14.996 92.2218 15.444C92.1378 15.892 92.0258 16.382 91.8858 16.914C91.7738 17.446 91.6338 18.006 91.4658 18.594C91.3258 19.154 91.1578 19.728 90.9618 20.316L86.9298 32.958H82.7298L76.5558 10.446H80.3778L83.4858 22.458C83.7098 23.27 83.9198 24.096 84.1158 24.936C84.3118 25.748 84.4798 26.532 84.6198 27.288C84.7878 28.016 84.8998 28.646 84.9558 29.178H85.1238C85.2078 28.842 85.3058 28.422 85.4178 27.918C85.5298 27.414 85.6418 26.882 85.7538 26.322C85.8938 25.762 86.0338 25.202 86.1738 24.642C86.3418 24.082 86.4958 23.578 86.6358 23.13L90.6258 10.446H94.6578L98.5218 23.13C98.7178 23.774 98.9138 24.46 99.1098 25.188C99.3338 25.916 99.5298 26.63 99.6978 27.33C99.8658 28.002 99.9778 28.604 100.034 29.136H100.202C100.258 28.66 100.356 28.072 100.496 27.372C100.664 26.644 100.846 25.86 101.042 25.02C101.266 24.152 101.49 23.298 101.714 22.458L104.864 10.446H108.644L102.386 32.958H98.0598L94.1958 20.274ZM121.207 10.11C123.951 10.11 125.981 10.712 127.297 11.916C128.613 13.12 129.271 15.038 129.271 17.67V33H126.583L125.869 29.808H125.701C125.057 30.62 124.385 31.306 123.685 31.866C123.013 32.398 122.229 32.79 121.333 33.042C120.465 33.294 119.401 33.42 118.141 33.42C116.797 33.42 115.579 33.182 114.487 32.706C113.423 32.23 112.583 31.502 111.967 30.522C111.351 29.514 111.043 28.254 111.043 26.742C111.043 24.502 111.925 22.78 113.689 21.576C115.453 20.344 118.169 19.672 121.837 19.56L125.659 19.434V18.09C125.659 16.214 125.253 14.912 124.441 14.184C123.629 13.456 122.481 13.092 120.997 13.092C119.821 13.092 118.701 13.274 117.637 13.638C116.573 13.974 115.579 14.366 114.655 14.814L113.521 12.042C114.501 11.51 115.663 11.062 117.007 10.698C118.351 10.306 119.751 10.11 121.207 10.11ZM122.299 22.122C119.499 22.234 117.553 22.682 116.461 23.466C115.397 24.25 114.865 25.356 114.865 26.784C114.865 28.044 115.243 28.968 115.999 29.556C116.783 30.144 117.777 30.438 118.981 30.438C120.885 30.438 122.467 29.92 123.727 28.884C124.987 27.82 125.617 26.196 125.617 24.012V21.996L122.299 22.122ZM146.724 10.068C147.144 10.068 147.592 10.096 148.068 10.152C148.572 10.18 149.006 10.236 149.37 10.32L148.908 13.722C148.544 13.638 148.138 13.568 147.69 13.512C147.27 13.456 146.864 13.428 146.472 13.428C145.604 13.428 144.778 13.61 143.994 13.974C143.21 14.338 142.51 14.856 141.894 15.528C141.278 16.172 140.788 16.956 140.424 17.88C140.088 18.804 139.92 19.84 139.92 20.988V33H136.224V10.488H139.248L139.668 14.604H139.836C140.312 13.764 140.886 13.008 141.558 12.336C142.23 11.636 143 11.09 143.868 10.698C144.736 10.278 145.688 10.068 146.724 10.068ZM161.448 10.068C163.38 10.068 165.032 10.488 166.404 11.328C167.804 12.168 168.868 13.358 169.596 14.898C170.352 16.41 170.73 18.188 170.73 20.232V22.458H155.316C155.372 25.006 156.016 26.952 157.248 28.296C158.508 29.612 160.258 30.27 162.498 30.27C163.926 30.27 165.186 30.144 166.278 29.892C167.398 29.612 168.546 29.22 169.722 28.716V31.95C168.574 32.454 167.44 32.818 166.32 33.042C165.2 33.294 163.87 33.42 162.33 33.42C160.202 33.42 158.312 32.986 156.66 32.118C155.036 31.25 153.762 29.962 152.838 28.254C151.942 26.518 151.494 24.404 151.494 21.912C151.494 19.448 151.9 17.334 152.712 15.57C153.552 13.806 154.714 12.448 156.198 11.496C157.71 10.544 159.46 10.068 161.448 10.068ZM161.406 13.092C159.642 13.092 158.242 13.666 157.206 14.814C156.198 15.934 155.596 17.502 155.4 19.518H166.866C166.866 18.23 166.67 17.11 166.278 16.158C165.886 15.206 165.284 14.464 164.472 13.932C163.688 13.372 162.666 13.092 161.406 13.092ZM211.899 17.712C211.899 21.072 211.269 23.886 210.009 26.154C208.777 28.422 206.999 30.13 204.675 31.278C202.351 32.426 199.537 33 196.233 33H187.875V3.012H197.115C200.139 3.012 202.757 3.572 204.969 4.692C207.181 5.812 208.889 7.464 210.093 9.648C211.297 11.804 211.899 14.492 211.899 17.712ZM207.909 17.838C207.909 15.178 207.461 12.994 206.565 11.286C205.697 9.578 204.409 8.318 202.701 7.506C201.021 6.666 198.977 6.246 196.569 6.246H191.655V29.766H195.729C199.789 29.766 202.827 28.772 204.843 26.784C206.887 24.768 207.909 21.786 207.909 17.838ZM226.744 10.068C228.676 10.068 230.328 10.488 231.7 11.328C233.1 12.168 234.164 13.358 234.892 14.898C235.648 16.41 236.026 18.188 236.026 20.232V22.458H220.612C220.668 25.006 221.312 26.952 222.544 28.296C223.804 29.612 225.554 30.27 227.794 30.27C229.222 30.27 230.482 30.144 231.574 29.892C232.694 29.612 233.842 29.22 235.018 28.716V31.95C233.87 32.454 232.736 32.818 231.616 33.042C230.496 33.294 229.166 33.42 227.626 33.42C225.498 33.42 223.608 32.986 221.956 32.118C220.332 31.25 219.058 29.962 218.134 28.254C217.238 26.518 216.79 24.404 216.79 21.912C216.79 19.448 217.196 17.334 218.008 15.57C218.848 13.806 220.01 12.448 221.494 11.496C223.006 10.544 224.756 10.068 226.744 10.068ZM226.702 13.092C224.938 13.092 223.538 13.666 222.502 14.814C221.494 15.934 220.892 17.502 220.696 19.518H232.162C232.162 18.23 231.966 17.11 231.574 16.158C231.182 15.206 230.58 14.464 229.768 13.932C228.984 13.372 227.962 13.092 226.702 13.092ZM245.893 33L237.367 10.488H241.315L246.103 23.76C246.327 24.376 246.565 25.062 246.817 25.818C247.069 26.574 247.293 27.302 247.489 28.002C247.685 28.674 247.825 29.248 247.909 29.724H248.077C248.189 29.248 248.343 28.66 248.539 27.96C248.763 27.26 249.001 26.532 249.253 25.776C249.533 25.02 249.771 24.348 249.967 23.76L254.755 10.488H258.703L250.135 33H245.893ZM270.959 10.068C272.891 10.068 274.543 10.488 275.915 11.328C277.315 12.168 278.379 13.358 279.107 14.898C279.863 16.41 280.241 18.188 280.241 20.232V22.458H264.827C264.883 25.006 265.527 26.952 266.759 28.296C268.019 29.612 269.769 30.27 272.009 30.27C273.437 30.27 274.697 30.144 275.789 29.892C276.909 29.612 278.057 29.22 279.233 28.716V31.95C278.085 32.454 276.951 32.818 275.831 33.042C274.711 33.294 273.381 33.42 271.841 33.42C269.713 33.42 267.823 32.986 266.171 32.118C264.547 31.25 263.273 29.962 262.349 28.254C261.453 26.518 261.005 24.404 261.005 21.912C261.005 19.448 261.411 17.334 262.223 15.57C263.063 13.806 264.225 12.448 265.709 11.496C267.221 10.544 268.971 10.068 270.959 10.068ZM270.917 13.092C269.153 13.092 267.753 13.666 266.717 14.814C265.709 15.934 265.107 17.502 264.911 19.518H276.377C276.377 18.23 276.181 17.11 275.789 16.158C275.397 15.206 274.795 14.464 273.983 13.932C273.199 13.372 272.177 13.092 270.917 13.092ZM289.668 33H285.972V1.08H289.668V33ZM316.372 21.702C316.372 23.578 316.12 25.244 315.616 26.7C315.14 28.128 314.44 29.346 313.516 30.354C312.62 31.362 311.514 32.132 310.198 32.664C308.91 33.168 307.468 33.42 305.872 33.42C304.388 33.42 303.016 33.168 301.756 32.664C300.496 32.132 299.404 31.362 298.48 30.354C297.556 29.346 296.828 28.128 296.296 26.7C295.792 25.244 295.54 23.578 295.54 21.702C295.54 19.21 295.96 17.11 296.8 15.402C297.64 13.666 298.844 12.35 300.412 11.454C301.98 10.53 303.842 10.068 305.998 10.068C308.042 10.068 309.834 10.53 311.374 11.454C312.942 12.35 314.16 13.666 315.028 15.402C315.924 17.11 316.372 19.21 316.372 21.702ZM299.362 21.702C299.362 23.466 299.586 25.006 300.034 26.322C300.51 27.61 301.238 28.604 302.218 29.304C303.198 30.004 304.444 30.354 305.956 30.354C307.468 30.354 308.714 30.004 309.694 29.304C310.674 28.604 311.388 27.61 311.836 26.322C312.312 25.006 312.55 23.466 312.55 21.702C312.55 19.91 312.312 18.384 311.836 17.124C311.36 15.864 310.632 14.898 309.652 14.226C308.7 13.526 307.454 13.176 305.914 13.176C303.618 13.176 301.952 13.932 300.916 15.444C299.88 16.956 299.362 19.042 299.362 21.702ZM332.94 10.068C335.712 10.068 337.938 11.034 339.618 12.966C341.326 14.898 342.18 17.81 342.18 21.702C342.18 24.25 341.788 26.406 341.004 28.17C340.248 29.906 339.17 31.222 337.77 32.118C336.398 32.986 334.774 33.42 332.898 33.42C331.75 33.42 330.728 33.266 329.832 32.958C328.936 32.65 328.166 32.258 327.522 31.782C326.906 31.278 326.374 30.732 325.926 30.144H325.674C325.73 30.62 325.786 31.222 325.842 31.95C325.898 32.678 325.926 33.308 325.926 33.84V43.08H322.23V10.488H325.254L325.758 13.554H325.926C326.374 12.91 326.906 12.322 327.522 11.79C328.166 11.258 328.922 10.838 329.79 10.53C330.686 10.222 331.736 10.068 332.94 10.068ZM332.268 13.176C330.756 13.176 329.538 13.47 328.614 14.058C327.69 14.618 327.018 15.472 326.598 16.62C326.178 17.768 325.954 19.224 325.926 20.988V21.702C325.926 23.55 326.122 25.118 326.514 26.406C326.906 27.694 327.564 28.674 328.488 29.346C329.44 30.018 330.728 30.354 332.352 30.354C333.724 30.354 334.844 29.976 335.712 29.22C336.608 28.464 337.266 27.442 337.686 26.154C338.134 24.838 338.358 23.34 338.358 21.66C338.358 19.084 337.854 17.026 336.846 15.486C335.866 13.946 334.34 13.176 332.268 13.176ZM372.766 10.068C375.314 10.068 377.218 10.726 378.478 12.042C379.738 13.33 380.368 15.43 380.368 18.342V33H376.714V18.51C376.714 16.746 376.336 15.416 375.58 14.52C374.852 13.624 373.704 13.176 372.136 13.176C369.952 13.176 368.384 13.806 367.432 15.066C366.508 16.326 366.046 18.16 366.046 20.568V33H362.392V18.51C362.392 17.334 362.224 16.354 361.888 15.57C361.552 14.758 361.048 14.156 360.376 13.764C359.704 13.372 358.836 13.176 357.772 13.176C356.26 13.176 355.07 13.498 354.202 14.142C353.334 14.758 352.704 15.668 352.312 16.872C351.948 18.076 351.766 19.56 351.766 21.324V33H348.07V10.488H351.052L351.598 13.554H351.808C352.284 12.77 352.858 12.126 353.53 11.622C354.23 11.09 355 10.698 355.84 10.446C356.68 10.194 357.548 10.068 358.444 10.068C360.18 10.068 361.622 10.376 362.77 10.992C363.946 11.608 364.8 12.56 365.332 13.848H365.542C366.298 12.56 367.32 11.608 368.608 10.992C369.924 10.376 371.31 10.068 372.766 10.068ZM396.016 10.068C397.948 10.068 399.6 10.488 400.972 11.328C402.372 12.168 403.436 13.358 404.164 14.898C404.92 16.41 405.298 18.188 405.298 20.232V22.458H389.884C389.94 25.006 390.584 26.952 391.816 28.296C393.076 29.612 394.826 30.27 397.066 30.27C398.494 30.27 399.754 30.144 400.846 29.892C401.966 29.612 403.114 29.22 404.29 28.716V31.95C403.142 32.454 402.008 32.818 400.888 33.042C399.768 33.294 398.438 33.42 396.898 33.42C394.77 33.42 392.88 32.986 391.228 32.118C389.604 31.25 388.33 29.962 387.406 28.254C386.51 26.518 386.062 24.404 386.062 21.912C386.062 19.448 386.468 17.334 387.28 15.57C388.12 13.806 389.282 12.448 390.766 11.496C392.278 10.544 394.028 10.068 396.016 10.068ZM395.974 13.092C394.21 13.092 392.81 13.666 391.774 14.814C390.766 15.934 390.164 17.502 389.968 19.518H401.434C401.434 18.23 401.238 17.11 400.846 16.158C400.454 15.206 399.852 14.464 399.04 13.932C398.256 13.372 397.234 13.092 395.974 13.092ZM421.865 10.068C424.553 10.068 426.583 10.726 427.955 12.042C429.327 13.33 430.013 15.43 430.013 18.342V33H426.359V18.594C426.359 16.774 425.953 15.416 425.141 14.52C424.329 13.624 423.055 13.176 421.319 13.176C418.827 13.176 417.105 13.876 416.153 15.276C415.201 16.676 414.725 18.692 414.725 21.324V33H411.029V10.488H414.011L414.557 13.554H414.767C415.271 12.77 415.887 12.126 416.615 11.622C417.371 11.09 418.197 10.698 419.093 10.446C419.989 10.194 420.913 10.068 421.865 10.068ZM444.51 30.396C445.07 30.396 445.644 30.354 446.232 30.27C446.82 30.158 447.296 30.046 447.66 29.934V32.748C447.268 32.944 446.708 33.098 445.98 33.21C445.252 33.35 444.552 33.42 443.88 33.42C442.704 33.42 441.612 33.224 440.604 32.832C439.624 32.412 438.826 31.698 438.21 30.69C437.594 29.682 437.286 28.268 437.286 26.448V13.344H434.094V11.58L437.328 10.11L438.798 5.322H440.982V10.488H447.492V13.344H440.982V26.364C440.982 27.736 441.304 28.758 441.948 29.43C442.62 30.074 443.474 30.396 444.51 30.396Z" fill="white"/>
</svg>
