<svg width="641" height="190" viewBox="0 0 641 190" fill="none" xmlns="http://www.w3.org/2000/svg">
<path d="M63.24 147L57 126.6H25.8L19.56 147H0L30.24 60.96H52.44L82.8 147H63.24ZM46.44 91.44C46.04 90.08 45.52 88.36 44.88 86.28C44.24 84.2 43.6 82.08 42.96 79.92C42.32 77.76 41.8 75.88 41.4 74.28C41 75.88 40.44 77.88 39.72 80.28C39.08 82.6 38.44 84.84 37.8 87C37.24 89.08 36.8 90.56 36.48 91.44L30.36 111.36H52.68L46.44 91.44ZM128.692 80.28C136.052 80.28 142.012 83.16 146.572 88.92C151.132 94.6 153.412 103 153.412 114.12C153.412 121.56 152.332 127.84 150.172 132.96C148.012 138 145.052 141.8 141.292 144.36C137.532 146.92 133.172 148.2 128.212 148.2C125.092 148.2 122.372 147.8 120.052 147C117.812 146.2 115.892 145.16 114.292 143.88C112.692 142.6 111.292 141.24 110.092 139.8H109.132C109.452 141.32 109.692 142.92 109.852 144.6C110.012 146.2 110.092 147.8 110.092 149.4V175.8H92.2116V81.48H106.732L109.252 90H110.092C111.292 88.24 112.732 86.64 114.412 85.2C116.092 83.68 118.092 82.48 120.412 81.6C122.812 80.72 125.572 80.28 128.692 80.28ZM122.932 94.56C119.812 94.56 117.332 95.2 115.492 96.48C113.652 97.76 112.292 99.72 111.412 102.36C110.612 104.92 110.172 108.16 110.092 112.08V114C110.092 118.24 110.492 121.84 111.292 124.8C112.092 127.68 113.452 129.88 115.372 131.4C117.292 132.92 119.892 133.68 123.172 133.68C125.892 133.68 128.132 132.92 129.892 131.4C131.652 129.88 132.972 127.64 133.852 124.68C134.732 121.72 135.172 118.12 135.172 113.88C135.172 107.48 134.172 102.68 132.172 99.48C130.252 96.2 127.172 94.56 122.932 94.56ZM204.629 80.28C211.989 80.28 217.949 83.16 222.509 88.92C227.069 94.6 229.349 103 229.349 114.12C229.349 121.56 228.269 127.84 226.109 132.96C223.949 138 220.989 141.8 217.229 144.36C213.469 146.92 209.109 148.2 204.149 148.2C201.029 148.2 198.309 147.8 195.989 147C193.749 146.2 191.829 145.16 190.229 143.88C188.629 142.6 187.229 141.24 186.029 139.8H185.069C185.389 141.32 185.629 142.92 185.789 144.6C185.949 146.2 186.029 147.8 186.029 149.4V175.8H168.149V81.48H182.669L185.189 90H186.029C187.229 88.24 188.669 86.64 190.349 85.2C192.029 83.68 194.029 82.48 196.349 81.6C198.749 80.72 201.509 80.28 204.629 80.28ZM198.869 94.56C195.749 94.56 193.269 95.2 191.429 96.48C189.589 97.76 188.229 99.72 187.349 102.36C186.549 104.92 186.109 108.16 186.029 112.08V114C186.029 118.24 186.429 121.84 187.229 124.8C188.029 127.68 189.389 129.88 191.309 131.4C193.229 132.92 195.829 133.68 199.109 133.68C201.829 133.68 204.069 132.92 205.829 131.4C207.589 129.88 208.909 127.64 209.789 124.68C210.669 121.72 211.109 118.12 211.109 113.88C211.109 107.48 210.109 102.68 208.109 99.48C206.189 96.2 203.109 94.56 198.869 94.56ZM301.934 60.0469C305.566 60.0469 308.965 60.5937 312.129 61.6875C315.293 62.7813 318.027 64.3633 320.332 66.4336C322.637 68.4648 324.434 70.9648 325.723 73.9336C327.051 76.9023 327.715 80.2617 327.715 84.0117C327.715 87.2148 327.227 90.1836 326.25 92.918C325.312 95.6133 324.023 98.2109 322.383 100.711C320.742 103.211 318.848 105.633 316.699 107.977C314.59 110.32 312.324 112.703 309.902 115.125L287.285 138.328C288.887 137.859 290.508 137.508 292.148 137.273C293.789 137 295.371 136.863 296.895 136.863H325.664C326.836 136.863 327.754 137.215 328.418 137.918C329.121 138.582 329.473 139.441 329.473 140.496V147H272.109V143.367C272.109 142.586 272.246 141.805 272.52 141.023C272.832 140.203 273.34 139.461 274.043 138.797L301.582 111.141C303.848 108.797 305.918 106.57 307.793 104.461C309.668 102.312 311.27 100.164 312.598 98.0156C313.965 95.8281 315 93.6211 315.703 91.3945C316.445 89.168 316.816 86.8047 316.816 84.3047C316.816 81.7656 316.406 79.5586 315.586 77.6836C314.805 75.7695 313.711 74.207 312.305 72.9961C310.898 71.7461 309.258 70.8086 307.383 70.1836C305.508 69.5586 303.496 69.2461 301.348 69.2461C299.16 69.2461 297.148 69.5781 295.312 70.2422C293.477 70.8672 291.836 71.7461 290.391 72.8789C288.984 74.0117 287.793 75.3594 286.816 76.9219C285.84 78.4844 285.156 80.2031 284.766 82.0781C284.453 83.25 283.965 84.0898 283.301 84.5977C282.676 85.1055 281.836 85.3594 280.781 85.3594C280.586 85.3594 280.371 85.3594 280.137 85.3594C279.941 85.3203 279.707 85.2812 279.434 85.2422L273.867 84.3047C274.414 80.3984 275.488 76.9414 277.09 73.9336C278.691 70.8867 280.723 68.3477 283.184 66.3164C285.645 64.2461 288.457 62.6836 291.621 61.6289C294.824 60.5742 298.262 60.0469 301.934 60.0469ZM401 61.32C412.2 61.32 420.36 63.52 425.48 67.92C430.6 72.32 433.16 78.52 433.16 86.52C433.16 90.04 432.56 93.44 431.36 96.72C430.24 99.92 428.36 102.8 425.72 105.36C423.08 107.92 419.56 109.96 415.16 111.48C410.76 112.92 405.36 113.64 398.96 113.64H389.12V147H378.32V61.32H401ZM400.04 70.56H389.12V104.4H397.76C403.2 104.4 407.72 103.84 411.32 102.72C414.92 101.52 417.6 99.64 419.36 97.08C421.12 94.52 422 91.16 422 87C422 81.48 420.24 77.36 416.72 74.64C413.2 71.92 407.64 70.56 400.04 70.56ZM473.896 81.6C481.736 81.6 487.536 83.32 491.296 86.76C495.056 90.2 496.936 95.68 496.936 103.2V147H489.256L487.216 137.88H486.736C484.896 140.2 482.976 142.16 480.976 143.76C479.056 145.28 476.816 146.4 474.256 147.12C471.776 147.84 468.736 148.2 465.136 148.2C461.296 148.2 457.816 147.52 454.696 146.16C451.656 144.8 449.256 142.72 447.496 139.92C445.736 137.04 444.856 133.44 444.856 129.12C444.856 122.72 447.376 117.8 452.416 114.36C457.456 110.84 465.216 108.92 475.696 108.6L486.616 108.24V104.4C486.616 99.04 485.456 95.32 483.136 93.24C480.816 91.16 477.536 90.12 473.296 90.12C469.936 90.12 466.736 90.64 463.696 91.68C460.656 92.64 457.816 93.76 455.176 95.04L451.936 87.12C454.736 85.6 458.056 84.32 461.896 83.28C465.736 82.16 469.736 81.6 473.896 81.6ZM477.016 115.92C469.016 116.24 463.456 117.52 460.336 119.76C457.296 122 455.776 125.16 455.776 129.24C455.776 132.84 456.856 135.48 459.016 137.16C461.256 138.84 464.096 139.68 467.536 139.68C472.976 139.68 477.496 138.2 481.096 135.24C484.696 132.2 486.496 127.56 486.496 121.32V115.56L477.016 115.92ZM542.602 148.2C536.922 148.2 531.842 147.04 527.362 144.72C522.962 142.4 519.482 138.8 516.922 133.92C514.442 129.04 513.202 122.8 513.202 115.2C513.202 107.28 514.522 100.84 517.162 95.88C519.802 90.92 523.362 87.28 527.842 84.96C532.402 82.64 537.562 81.48 543.322 81.48C546.602 81.48 549.762 81.84 552.802 82.56C555.842 83.2 558.322 84 560.242 84.96L557.002 93.72C555.082 93 552.842 92.32 550.282 91.68C547.722 91.04 545.322 90.72 543.082 90.72C538.762 90.72 535.202 91.64 532.402 93.48C529.602 95.32 527.522 98.04 526.162 101.64C524.802 105.24 524.122 109.72 524.122 115.08C524.122 120.2 524.802 124.56 526.162 128.16C527.522 131.76 529.562 134.48 532.282 136.32C535.002 138.16 538.402 139.08 542.482 139.08C546.002 139.08 549.082 138.72 551.722 138C554.442 137.28 556.922 136.4 559.162 135.36V144.72C557.002 145.84 554.602 146.68 551.962 147.24C549.402 147.88 546.282 148.2 542.602 148.2ZM584.898 103.44C584.898 104.72 584.818 106.4 584.658 108.48C584.578 110.56 584.498 112.36 584.418 113.88H584.898C585.378 113.24 586.098 112.32 587.058 111.12C588.018 109.92 588.978 108.72 589.938 107.52C590.978 106.24 591.858 105.2 592.578 104.4L613.098 82.68H625.458L599.418 110.16L627.258 147H614.538L592.218 117L584.898 123.36V147H574.458V55.8H584.898V103.44Z" fill="white"/>
<path d="M296.125 105.741C296.454 105.321 296.76 104.866 297.043 104.376C297.304 103.869 297.5 103.447 297.63 103.108L299.739 104.762C299.656 105.171 299.442 105.681 299.098 106.292C298.775 106.92 298.416 107.486 298.022 107.99C297.33 108.871 296.542 109.574 295.656 110.1C294.765 110.587 293.761 110.766 292.644 110.635C291.526 110.505 290.285 109.904 288.921 108.835L279.1 101.135L277.224 103.527L275.902 102.491L276.701 99.2031L273.976 95.2879L275.259 93.651L279.131 96.6866L282.957 91.8074L285.097 93.4856L281.272 98.3648L291.03 106.016C292.058 106.822 293.014 107.181 293.896 107.093C294.773 106.968 295.516 106.517 296.125 105.741ZM305.61 80.2233C307.016 81.3257 308.116 82.4935 308.911 83.7268C309.702 84.9227 310.204 86.163 310.416 87.4479C310.645 88.7117 310.572 89.9931 310.198 91.2921C309.819 92.5536 309.16 93.7824 308.222 94.9786C307.35 96.0909 306.355 96.9711 305.237 97.6193C304.098 98.2511 302.879 98.6171 301.581 98.7173C300.282 98.8175 298.942 98.6474 297.559 98.207C296.171 97.7292 294.775 96.9391 293.369 95.8368C291.501 94.3724 290.174 92.8237 289.387 91.1904C288.58 89.5408 288.301 87.8651 288.551 86.1634C288.779 84.4452 289.527 82.7782 290.794 81.1623C291.995 79.6303 293.395 78.5587 294.992 77.9474C296.585 77.2987 298.287 77.1591 300.098 77.5287C301.905 77.8608 303.742 78.759 305.61 80.2233ZM295.614 92.9722C296.937 94.0088 298.222 94.7458 299.472 95.1833C300.717 95.5834 301.89 95.6219 302.99 95.2987C304.091 94.9755 305.085 94.2473 305.974 93.1141C306.862 91.9808 307.332 90.8413 307.383 89.6955C307.434 88.5496 307.109 87.4304 306.407 86.3378C305.7 85.2077 304.686 84.1244 303.364 83.0879C302.021 82.0349 300.737 81.3166 299.513 80.9329C298.289 80.5493 297.137 80.5273 296.058 80.8669C294.974 81.1691 293.979 81.8973 293.074 83.0515C291.725 84.7724 291.313 86.4653 291.837 88.1302C292.362 89.7952 293.621 91.4092 295.614 92.9722Z" fill="white" fill-opacity="0.7"/>
</svg>
